<?xml version="1.0" encoding="UTF-8" standalone="yes"?>
<svg version="1.2" width="406.000000pt" height="406.000000pt" viewBox="0 0 406.000000 406.000000" preserveAspectRatio="xMidYMid meet" baseProfile="tiny-ps" xmlns="http://www.w3.org/2000/svg">
  <title>bimi-svg-tiny-12-ps</title>
  <g transform="translate(0.000000,406.000000) scale(0.100000,-0.100000)" fill="#000000" stroke="none">
    <path d="M1973 3575 c-64 -18 -120 -46 -160 -79 l-29 -25 -64 32 c-56 28 -74&#xA;32 -140 31 -113 0 -212 -55 -270 -149 -19 -31 -23 -33 -93 -37 -91 -6 -158&#xA;-39 -219 -107 -61 -68 -83 -137 -74 -240 4 -42 8 -107 10 -146 1 -38 6 -90 11&#xA;-114 7 -41 7 -44 -11 -37 -10 5 -46 12 -79 16 -33 4 -77 15 -97 24 -21 9 -49&#xA;16 -63 16 -14 0 -39 7 -54 15 -75 38 -175 26 -230 -27 -43 -42 -51 -98 -25&#xA;-185 5 -17 1 -22 -18 -25 -21 -3 -23 -8 -23 -53 0 -42 3 -50 20 -53 11 -2 35&#xA;-11 53 -19 l32 -15 0 -189 0 -189 -37 6 c-34 5 -45 0 -99 -39 l-61 -45 -55&#xA;-158 c-39 -111 -53 -164 -47 -176 6 -12 5 -17 -7 -20 -11 -2 -30 -41 -54 -109&#xA;l-38 -107 39 -60 c33 -53 55 -72 155 -139 l117 -78 236 -55 236 -56 3 -132 3&#xA;-132 337 -1 c185 -1 348 -4 362 -8 14 -5 44 -2 70 6 25 7 46 13 48 13 1 0 2&#xA;-7 2 -15 0 -21 268 -22 276 -1 4 11 14 12 47 4 86 -20 199 4 253 54 21 19 22&#xA;19 47 -4 25 -22 26 -25 15 -70 -14 -60 0 -114 45 -165 115 -131 327 -45 327&#xA;134 0 46 40 57 199 50 81 -3 158 0 216 9 50 8 93 14 97 14 4 0 9 55 10 122 l3&#xA;123 261 55 262 55 126 84 c69 46 130 89 136 96 8 10 0 33 -28 88 l-38 75 22&#xA;11 c25 11 26 -1 -6 188 l-17 102 22 8 22 8 -41 135 -42 135 -62 3 -62 3 0 179&#xA;c0 176 0 180 23 195 13 8 37 18 55 21 31 6 32 8 32 59 l0 53 -41 7 c-36 6 -40&#xA;10 -34 29 3 11 9 41 12 66 6 58 -24 105 -87 138 -52 27 -124 27 -179 -1 -19&#xA;-9 -47 -17 -63 -17 -16 0 -46 -9 -68 -20 -22 -11 -57 -20 -79 -20 -22 0 -51&#xA;-4 -65 -10 l-26 -10 20 41 c20 38 27 88 21 154 -1 17 3 50 9 75 16 62 4 138&#xA;-31 210 -54 106 -158 170 -279 170 -33 0 -60 4 -60 9 0 24 -113 130 -162 152&#xA;-81 36 -187 33 -265 -7 l-59 -30 -47 32 c-79 54 -150 77 -257 80 -63 3 -113&#xA;-1 -147 -11z m291 -124 c79 -39 109 -70 101 -104 l-7 -25 -34 38 c-53 58 -122&#xA;85 -224 85 -73 0 -93 -4 -142 -28 -32 -16 -71 -44 -86 -63 l-29 -35 -5 25 c-4&#xA;20 2 34 26 57 93 92 270 114 400 50z m-583 -42 c51 -26 96 -81 114 -141 8 -28&#xA;15 -59 15 -67 0 -9 7 -3 16 14 30 57 66 95 117 125 64 37 68 37 55 2 -14 -37&#xA;-4 -74 27 -103 32 -31 34 -69 3 -69 -13 0 -99 -53 -193 -118 l-170 -118 -3&#xA;-107 c-3 -124 -10 -131 -73 -68 -36 35 -39 43 -39 93 0 52 1 54 32 63 40 13&#xA;68 51 78 106 5 24 7 46 5 47 -2 2 -13 -15 -25 -37 -22 -45 -71 -81 -108 -81&#xA;-24 0 -97 33 -106 48 -7 12 40 55 84 78 20 10 58 18 88 18 51 1 52 2 25 13&#xA;-71 30 -153 3 -226 -75 -28 -29 -28 -31 -13 -60 9 -17 30 -39 47 -49 27 -16&#xA;30 -22 25 -53 -3 -19 -18 -47 -36 -65 -26 -26 -38 -30 -80 -29 -28 0 -50 -2&#xA;-50 -6 0 -20 54 -53 94 -57 43 -5 45 -7 40 -32 -3 -14 -20 -38 -37 -53 l-31&#xA;-28 33 0 c18 0 41 5 53 11 17 9 25 6 49 -17 36 -34 24 -52 -19 -30 -17 9 -44&#xA;16 -59 16 -15 1 -39 7 -53 15 -14 8 -42 14 -62 15 -20 0 -50 8 -67 18 -26 14&#xA;-31 23 -31 55 0 21 5 58 11 83 6 25 9 47 6 51 -11 10 -58 -27 -79 -63 l-21&#xA;-35 -24 23 c-82 76 -66 167 39 227 53 31 53 31 21 31 -33 0 -33 1 -33 48 0 27&#xA;8 64 19 84 l18 37 -23 -16 c-30 -19 -63 -73 -85 -138 l-18 -50 0 66 c-1 87 27&#xA;143 92 183 68 42 125 45 228 11 46 -16 95 -35 108 -44 23 -15 24 -14 13 5 -6&#xA;11 -18 26 -26 34 -24 19 -19 35 23 73 50 45 98 60 173 55 58 -4 59 -4 31 11&#xA;-17 9 -55 15 -98 15 -61 0 -78 -4 -128 -32 -48 -27 -56 -29 -48 -13 19 35 93&#xA;90 135 100 50 11 99 4 147 -20z m1046 -5 c36 -21 83 -70 83 -88 0 -4 -17 5&#xA;-37 18 -73 48 -168 56 -248 22 -27 -11 -23 -12 37 -8 84 5 130 -10 180 -60&#xA;l39 -39 -30 -36 c-35 -42 -34 -52 2 -28 34 22 173 65 211 65 99 0 185 -69 207&#xA;-163 9 -41 9 -65 2 -89 -10 -30 -11 -31 -12 -8 -2 38 -45 122 -80 154 -35 34&#xA;-37 32 -16 -12 9 -17 18 -53 22 -81 l6 -51 -39 0 -39 -1 40 -21 c52 -26 90&#xA;-63 106 -99 9 -24 9 -37 -5 -73 -20 -52 -66 -99 -74 -76 -7 21 -91 104 -98 97&#xA;-3 -3 -1 -22 5 -44 6 -21 11 -58 11 -83 0 -44 -1 -46 -49 -68 -66 -30 -115&#xA;-29 -146 3 -14 13 -25 36 -25 50 0 20 5 25 25 25 37 0 92 25 103 47 10 18 6&#xA;19 -43 19 -43 -1 -58 4 -79 23 -34 32 -57 102 -36 109 27 9 80 70 80 91 0 31&#xA;-56 88 -105 107 -31 12 -59 15 -91 10 -68 -9 -80 -21 -21 -22 29 0 66 -7 82&#xA;-16 36 -19 85 -63 85 -77 0 -14 -82 -51 -113 -51 -32 0 -88 47 -110 92 l-17&#xA;33 0 -29 c0 -51 37 -114 76 -128 39 -14 50 -39 40 -92 -8 -43 -37 -80 -76 -96&#xA;-49 -20 -36 -33 28 -27 31 3 68 9 82 13 24 7 24 7 9 -16 -22 -34 -78 -61 -119&#xA;-58 l-35 3 -5 147 -5 147 -169 116 c-96 65 -180 115 -193 115 -18 0 -23 6 -23&#xA;24 0 13 7 30 17 37 9 8 22 29 30 47 11 27 11 37 -1 66 -26 63 -91 84 -159 50&#xA;l-32 -15 25 20 c36 29 100 28 137 -3 15 -13 45 -31 64 -39 50 -21 116 -82 142&#xA;-131 l21 -41 7 48 c15 96 78 169 168 193 57 16 104 9 158 -22z m-580 -36 c31&#xA;-29 30 -72 -2 -103 -27 -28 -42 -30 -78 -14 -25 11 -47 47 -47 75 0 25 47 64&#xA;76 64 15 0 38 -10 51 -22z m155 -390 c127 -86 138 -95 138 -124 l0 -31 -55 10&#xA;c-53 10 -60 15 -154 114 -130 136 -126 135 -313 13 -118 -76 -138 -93 -138&#xA;-115 0 -14 -4 -25 -10 -25 -5 0 -10 15 -10 33 0 30 9 38 138 124 137 92 137&#xA;92 202 92 l65 1 137 -92z m-1785 -224 c-3 -3 -12 -4 -19 -1 -8 3 -5 6 6 6 11&#xA;1 17 -2 13 -5z m80 0 c-3 -3 -12 -4 -19 -1 -8 3 -5 6 6 6 11 1 17 -2 13 -5z&#xA;m1843 -89 c0 -78 -3 -95 -15 -95 -12 0 -15 16 -15 83 0 71 9 107 27 107 2 0 3&#xA;-43 3 -95z m1157 89 c-3 -3 -12 -4 -19 -1 -8 3 -5 6 6 6 11 1 17 -2 13 -5z&#xA;m80 0 c-3 -3 -12 -4 -19 -1 -8 3 -5 6 6 6 11 1 17 -2 13 -5z m-3198 -7 c-2 -1&#xA;-13 -9 -24 -17 -19 -14 -19 -14 -6 3 7 9 18 17 24 17 6 0 8 -1 6 -3z m188 -24&#xA;c4 3 9 -6 9 -20 1 -13 1 -23 0 -21 0 2 -12 16 -26 33 -14 16 -17 24 -8 16 9&#xA;-7 21 -11 25 -8z m2868 8 c-3 -5 0 -11 7 -14 7 -2 4 -3 -6 -1 -11 2 -26 -5&#xA;-33 -14 -13 -15 -13 -15 -4 5 9 18 21 28 39 32 2 1 1 -3 -3 -8z m200 -11 c10&#xA;-11 16 -20 13 -20 -3 0 -13 9 -23 20 -10 11 -16 20 -13 20 3 0 13 -9 23 -20z&#xA;m-2123 -18 l48 3 0 -32 c0 -30 -3 -33 -29 -33 -41 0 -81 17 -113 48 -38 35&#xA;-35 44 9 26 21 -9 56 -14 85 -12z m-1189 -7 c-3 -9 -8 -14 -10 -11 -3 3 -2 9&#xA;2 15 9 16 15 13 8 -4z m394 -32 c0 -9 -4 -10 -10 -4 -7 7 -21 5 -41 -5 -28&#xA;-14 -29 -14 -12 1 11 8 24 15 29 15 5 0 4 6 -3 14 -10 13 -8 13 13 3 13 -6 24&#xA;-17 24 -24z m2575 25 c-9 -9 -7 -15 6 -25 16 -13 15 -13 -3 -4 -15 7 -25 5&#xA;-40 -7 -19 -16 -19 -16 -6 1 7 9 10 17 5 17 -5 0 2 7 16 14 32 18 37 19 22 4z&#xA;m219 -5 c13 -16 12 -17 -3 -4 -17 13 -22 21 -14 21 2 0 10 -8 17 -17z m-119&#xA;-37 c2 -19 0 -32 -4 -30 -8 5 -12 64 -4 64 2 0 6 -15 8 -34z m-2932 -1 c14&#xA;-19 14 -19 -2 -6 -10 7 -18 18 -18 24 0 6 1 8 3 6 1 -2 9 -13 17 -24z m127 -7&#xA;c-3 -7 -5 -2 -5 12 0 14 2 19 5 13 2 -7 2 -19 0 -25z m268 17 c22 -8 34 -14&#xA;26 -15 -11 0 -11 -4 2 -18 23 -25 22 -62 0 -61 -11 0 -13 3 -5 6 33 13 -2 71&#xA;-35 59 -15 -6 -16 -5 -5 6 10 10 8 15 -10 25 -30 16 -22 16 27 -2z m2269 -10&#xA;c-7 -17 -30 -20 -39 -6 -3 5 5 12 17 14 13 2 24 5 25 6 1 0 0 -6 -3 -14z m387&#xA;-8 c-10 -9 -11 -8 -5 6 3 10 9 15 12 12 3 -3 0 -11 -7 -18z m-2521 -20 c16&#xA;-12 29 -26 29 -31 1 -5 -2 -6 -6 -3 -3 4 -16 -1 -27 -10 -21 -18 -21 -18 -3 3&#xA;16 20 16 21 0 36 -10 8 -27 21 -38 27 -17 11 -17 12 -1 7 10 -4 31 -16 46 -29z&#xA;m2165 -7 c10 -11 16 -20 13 -20 -3 0 -13 9 -23 20 -10 11 -16 20 -13 20 3 0&#xA;13 -9 23 -20z m123 -7 c28 5 33 4 19 -4 -24 -14 -62 -7 -63 11 -1 11 0 11 3 1&#xA;4 -9 15 -12 41 -8z m-2543 -2 c-8 -14 -45 -14 -65 -1 -10 6 -3 8 23 3 27 -4&#xA;37 -2 37 7 0 7 3 11 6 7 3 -3 3 -10 -1 -16z m1936 5 c38 -16 32 -20 -41 -31&#xA;l-44 -6 24 26 c13 14 24 25 26 25 1 0 17 -6 35 -14z m-1865 -26 c0 -12 -4 -16&#xA;-9 -11 -5 5 -6 14 -3 20 10 15 12 14 12 -9z m356 -25 c4 -5 7 -19 7 -30 l-1&#xA;-20 -5 20 c-3 11 -17 33 -31 50 -27 29 -27 29 -2 10 14 -11 28 -24 32 -30z&#xA;m1824 23 l19 -23 -22 18 c-20 18 -22 18 -32 0 -11 -20 -14 -14 -5 11 8 22 17&#xA;20 40 -6z m109 -10 c6 -4 2 -8 -7 -8 -10 0 -18 7 -18 17 0 9 3 12 8 7 4 -5 12&#xA;-12 17 -16z m-2757 -13 c-3 -3 -9 2 -12 12 -6 14 -5 15 5 6 7 -7 10 -15 7 -18z&#xA;m865 18 c-7 -2 -19 -2 -25 0 -7 3 -2 5 12 5 14 0 19 -2 13 -5z m1590 0 c-7 -2&#xA;-21 -2 -30 0 -10 3 -4 5 12 5 17 0 24 -2 18 -5z m382 -3 c-3 -5 -12 -10 -18&#xA;-10 -7 0 -6 4 3 10 19 12 23 12 15 0z m-357 -20 c-7 -10 -14 -18 -15 -16 -6 6&#xA;9 36 18 36 5 0 4 -9 -3 -20z m-1523 -29 c9 -23 1 -20 -24 11 -23 28 -23 29 -3&#xA;17 12 -8 24 -20 27 -28z m1416 26 c-6 -8 -9 -17 -6 -20 3 -4 2 -5 -2 -2 -3 3&#xA;-12 0 -20 -6 -22 -19 -15 -1 9 21 25 23 36 27 19 7z m178 -40 c-2 -3 -15 10&#xA;-28 27 l-24 31 28 -27 c16 -15 27 -29 24 -31z m106 33 c-3 -5 -14 -10 -23 -9&#xA;-14 0 -13 2 3 9 27 11 27 11 20 0z m-1937 -99 c282 -55 516 -101 519 -104 2&#xA;-3 3 -12 1 -19 -2 -11 -114 8 -523 87 -286 55 -526 104 -532 108 -19 12 -16&#xA;27 5 27 9 0 248 -45 530 -99z m2432 84 c0 -18 45 -8 -555 -124 -409 -78 -511&#xA;-95 -513 -83 -2 7 -2 16 1 18 6 6 1014 202 1045 203 13 1 22 -5 22 -14z&#xA;m-2238 -7 c-16 -16 -15 -28 3 -28 8 0 15 -5 15 -10 0 -7 -6 -7 -20 0 -11 6&#xA;-20 14 -20 18 0 9 21 32 29 32 3 0 0 -5 -7 -12z m167 -8 c19 0 32 -2 30 -4 -6&#xA;-6 -81 -15 -75 -8 3 3 0 12 -6 21 -10 13 -10 14 2 4 8 -7 30 -13 49 -13z&#xA;m1201 -29 c9 -9 5 -8 -12 2 -25 16 -28 16 -38 -1 -11 -16 -11 -16 -6 1 4 14&#xA;-1 17 -27 18 -30 2 -29 2 8 8 22 3 44 2 50 -4 6 -5 17 -16 25 -24z m-1487 12&#xA;c-7 -2 -19 -2 -25 0 -7 3 -2 5 12 5 14 0 19 -2 13 -5z m368 -20 l24 -28 -30&#xA;25 c-16 14 -32 26 -34 28 -2 1 0 2 6 2 5 0 20 -12 34 -27z m1239 22 c0 -2 -9&#xA;-9 -20 -15 -12 -6 -20 -7 -20 -1 0 5 8 12 18 14 9 3 18 5 20 6 1 0 2 -1 2 -4z&#xA;m123 -2 c-7 -2 -21 -2 -30 0 -10 3 -4 5 12 5 17 0 24 -2 18 -5z m-1515 -23&#xA;c-7 -10 -14 -17 -17 -15 -4 4 18 35 25 35 2 0 -1 -9 -8 -20z m1012 -172 c0&#xA;-173 -1 -183 -22 -205 l-21 -23 21 0 c20 0 22 -5 22 -55 l0 -55 -60 0 -60 0 0&#xA;248 0 249 48 10 c26 6 53 11 60 12 9 1 12 -41 12 -181z m247 156 c-3 -3 -12&#xA;-4 -19 -1 -8 3 -5 6 6 6 11 1 17 -2 13 -5z m1117 -558 c19 -60 19 -56 1 -56&#xA;-19 0 -20 18 14 -190 16 -96 27 -176 26 -178 -2 -2 -32 50 -68 115 -45 81 -69&#xA;137 -76 178 -6 33 -16 62 -21 63 -6 2 -10 30 -10 62 l0 59 53 3 c28 2 55 1 58&#xA;-2 4 -3 14 -27 23 -54z m-3344 43 c0 -36 -26 -92 -46 -99 -15 -6 -28 -26 -39&#xA;-62 -10 -29 -20 -58 -22 -64 -3 -8 27 -14 91 -19 89 -6 97 -9 115 -34 l20 -27&#xA;-35 -120 c-30 -106 -38 -122 -71 -151 -33 -28 -46 -33 -92 -33 -41 0 -52 3&#xA;-48 14 3 8 11 32 18 54 8 29 18 42 32 44 16 2 25 18 40 67 10 34 16 65 13 68&#xA;-3 3 -44 7 -93 10 -74 5 -91 9 -105 27 -10 11 -18 27 -18 34 0 8 18 66 41 130&#xA;49 141 76 171 152 172 28 0 47 -4 47 -11z m164 -35 c24 -35 24 -37 9 -88 -8&#xA;-28 -18 -54 -21 -57 -13 -11 -114 3 -109 15 17 46 18 56 3 56 -20 0 -20 5 0&#xA;63 15 45 17 47 55 47 33 0 42 -5 63 -36z m264 10 c174 -8 162 2 139 -109 l-13&#xA;-60 -47 -3 -48 -3 7 35 6 36 -44 0 c-25 0 -66 3 -91 6 -45 6 -46 6 -54 -27 -9&#xA;-32 -12 -34 -56 -37 -26 -2 -47 1 -47 6 0 8 30 115 46 161 2 8 13 11 27 8 12&#xA;-3 91 -9 175 -13z m2606 -249 c46 -138 91 -269 100 -293 l15 -43 -51 3 -52 3&#xA;-87 234 c-65 176 -92 237 -106 242 -12 4 -23 21 -27 39 -13 66 -11 69 52 72&#xA;31 2 60 1 64 -2 4 -3 45 -118 92 -255z m-260 238 c3 -10 12 -48 20 -85 l14&#xA;-68 -44 -1 c-24 -1 -50 -2 -56 -3 -7 -1 -15 13 -18 29 -4 25 -10 30 -38 33&#xA;-23 2 -32 8 -32 21 0 10 -3 32 -6 49 l-6 31 63 4 c35 2 72 4 81 5 9 1 19 -6&#xA;22 -15z m-175 -296 c23 -141 41 -262 41 -267 0 -6 -34 -10 -80 -10 -57 0 -80&#xA;4 -80 13 0 6 -3 29 -6 50 -6 33 -4 37 15 37 25 0 25 -13 1 162 -31 218 -28&#xA;206 -53 210 -19 3 -22 10 -25 50 l-3 47 68 3 c60 3 69 1 75 -17 4 -11 25 -136&#xA;47 -278z m-1741 242 c-3 -28 -10 -54 -16 -58 -12 -7 25 -354 39 -359 10 -4 12&#xA;-62 3 -86 -5 -12 -20 -16 -60 -16 -52 0 -53 1 -58 33 -9 51 -46 484 -46 529 0&#xA;4 32 8 71 8 l72 0 -5 -51z m1523 1 c4 -25 6 -46 5 -46 0 -1 -45 -5 -98 -9&#xA;l-98 -7 0 50 0 51 53 4 c28 2 70 3 92 3 40 -1 40 -1 46 -46z m-1089 30 l58 0&#xA;0 -49 c0 -27 -3 -63 -6 -80 -6 -29 -9 -31 -50 -31 -44 0 -44 0 -44 35 l0 36&#xA;-92 -3 -93 -3 -3 -32 c-3 -32 -5 -33 -46 -33 -23 0 -45 2 -48 5 -5 5 9 128 18&#xA;154 4 12 26 13 126 8 67 -4 147 -7 180 -7z m664 -246 c29 -137 55 -261 58&#xA;-276 5 -27 4 -28 -39 -28 l-44 0 -15 53 c-8 28 -34 129 -57 222 -23 94 -48&#xA;175 -55 181 -8 6 -14 30 -14 52 l0 41 48 4 c26 2 52 3 57 2 6 -1 33 -114 61&#xA;-251z m184 244 c0 -7 3 -30 6 -50 5 -30 3 -38 -9 -38 -20 0 -21 -4 -48 -187&#xA;-13 -84 -26 -153 -29 -153 -13 0 -58 255 -53 298 4 34 2 42 -11 42 -13 0 -16&#xA;11 -16 50 l0 50 80 0 c57 0 80 -4 80 -12z m-615 -265 c-4 -148 -9 -271 -12&#xA;-275 -2 -5 -40 -8 -84 -8 l-80 0 3 48 c3 39 6 47 25 50 20 3 21 10 28 130 12&#xA;235 12 227 -10 230 -17 2 -20 9 -17 47 l4 45 75 0 75 0 -7 -267z m230 214 c4&#xA;-29 5 -64 3 -78 -3 -22 -7 -24 -58 -24 -53 0 -55 1 -58 28 -3 21 -9 27 -28 27&#xA;-22 0 -24 4 -24 50 l0 50 79 0 80 0 6 -53z m1401 -60 c2 -7 3 -74 2 -148 l-3&#xA;-134 -38 105 c-21 59 -37 123 -37 148 0 41 0 42 35 42 20 0 38 -6 41 -13z&#xA;m-2740 -20 c2 -7 -8 -67 -24 -132 l-28 -120 -63 -3 c-56 -3 -62 -1 -58 15 7&#xA;24 43 157 57 211 l11 42 50 0 c31 0 51 -5 55 -13z m1951 -107 c19 -161 23&#xA;-150 -46 -150 l-58 0 -12 113 c-6 62 -11 119 -11 126 0 8 17 11 58 9 l57 -3&#xA;12 -95z m-1161 18 c-4 -40 -9 -97 -12 -125 l-6 -53 -61 0 -60 0 6 53 c4 28 10&#xA;85 13 125 l7 72 60 0 60 0 -7 -72z m-522 -69 c7 -110 6 -122 -11 -135 -14 -11&#xA;-15 -15 -5 -22 10 -7 12 -22 7 -56 l-7 -46 -85 0 c-76 0 -84 2 -79 18 2 9 7&#xA;32 11 50 4 17 12 32 18 32 7 0 39 63 72 140 33 77 63 140 66 140 3 0 9 -54 13&#xA;-121z m1999 74 c3 -5 8 -27 12 -50 6 -38 5 -43 -13 -43 -15 0 -21 9 -26 38 -3&#xA;20 -6 43 -6 50 0 13 26 17 33 5z m-1063 -53 c0 -43 -3 -50 -20 -50 -17 0 -20&#xA;7 -20 50 0 43 3 50 20 50 17 0 20 -7 20 -50z m1694 -127 c76 -138 82 -153 67&#xA;-166 -15 -13 -147 -102 -181 -122 -8 -5 9 21 38 58 28 36 52 71 52 77 0 6 -16&#xA;42 -35 80 -31 63 -35 78 -35 151 0 45 2 80 5 78 2 -3 42 -73 89 -156z m-3505&#xA;28 c11 -7 11 -15 3 -40 -10 -28 -9 -31 9 -31 23 0 23 -4 3 -63 l-16 -47 43&#xA;-52 c24 -29 50 -62 58 -72 9 -11 -32 13 -90 52 -67 44 -115 84 -129 106 -21&#xA;35 -21 37 -4 88 9 29 19 56 21 61 6 10 85 9 102 -2z m3060 -68 c7 -38 15 -78&#xA;18 -90 5 -23 4 -23 -90 -23 l-94 0 -7 38 c-9 59 -8 62 25 62 30 0 31 1 24 40&#xA;l-7 40 59 0 60 0 12 -67z m-1109 -28 l0 -85 -90 0 -90 0 0 50 c0 49 1 50 30&#xA;50 28 0 30 3 30 35 l0 35 60 0 60 0 0 -85z m-1372 10 c2 -1 -2 -23 -9 -49&#xA;l-11 -46 -104 0 c-57 0 -104 4 -104 9 0 4 5 23 11 42 6 19 12 39 14 46 3 8 31&#xA;10 102 6 54 -3 99 -7 101 -8z m838 -17 c-3 -13 -6 -35 -6 -50 l0 -28 -106 0&#xA;-107 0 7 38 c3 20 6 43 6 50 0 9 28 12 106 12 105 0 106 0 100 -22z m1214 -30&#xA;l6 -48 -108 0 -108 0 0 34 c0 19 -3 42 -6 51 -6 14 6 15 102 13 l109 -3 5 -47z&#xA;m-1728 -155 c51 -30 71 -65 72 -127 1 -88 -51 -138 -156 -151 l-48 -6 0 -55 0&#xA;-54 -65 0 -64 0 -1 204 0 205 48 4 c85 8 182 -1 214 -20z m1006 13 c4 -3 6&#xA;-26 3 -53 l-6 -48 -60 0 c-53 0 -60 -2 -60 -20 0 -14 16 -28 57 -47 77 -37&#xA;115 -111 71 -137 -15 -9 -15 -12 -4 -20 11 -7 10 -13 -4 -34 -20 -32 -82 -57&#xA;-138 -57 -43 0 -114 14 -124 23 -3 3 -2 28 2 55 l7 50 34 -10 c19 -5 51 -8 72&#xA;-6 29 2 37 7 37 23 0 14 -15 27 -52 45 -28 14 -61 34 -72 44 -23 21 -28 56 -8&#xA;56 8 1 7 5 -4 13 -11 9 -14 20 -8 40 18 67 83 100 182 93 37 -3 71 -7 75 -10z&#xA;m335 3 c139 -38 180 -242 73 -355 -41 -43 -75 -57 -77 -31 0 6 -4 34 -8 60 -6&#xA;33 -4 61 5 87 15 42 5 99 -22 121 -25 20 -75 15 -96 -10 -27 -34 -24 -106 7&#xA;-151 39 -56 39 -114 0 -124 -56 -14 -139 62 -159 147 -5 21 -3 27 10 27 16 0&#xA;16 2 -1 20 -30 33 -1 124 54 174 45 41 139 56 214 35z m321 -14 c16 -25 16&#xA;-27 -5 -44 l-23 -18 30 4 c28 4 33 0 63 -56 48 -91 54 -88 46 28 l-8 101 65 0&#xA;65 0 7 -92 c3 -50 6 -114 6 -143 0 -48 -2 -52 -32 -67 l-33 -16 33 -7 c28 -7&#xA;32 -11 32 -41 0 -37 -8 -41 -85 -46 l-39 -3 -58 95 c-32 52 -63 96 -68 98 -6&#xA;2 -10 -34 -10 -92 l0 -96 -66 0 c-64 0 -66 1 -60 23 3 12 6 104 6 204 l0 182&#xA;53 4 c28 2 55 4 58 5 4 1 14 -9 23 -23z m-1274 0 c83 -43 96 -147 28 -222&#xA;l-20 -22 46 -64 46 -65 -47 -16 c-25 -9 -54 -16 -64 -16 -10 0 -33 26 -58 65&#xA;-52 84 -71 86 -71 5 l0 -60 -65 0 c-51 0 -65 3 -65 15 0 8 8 15 18 15 16 1 16&#xA;2 -1 14 -17 13 -18 30 -16 183 1 92 4 171 6 176 8 14 232 8 263 -8z m239 -82&#xA;c1 -19 -4 -23 -30 -23 -24 0 -29 4 -25 18 3 9 10 37 17 62 l12 45 13 -40 c7&#xA;-22 13 -50 13 -62z m1 -45 c0 -5 0 -64 0 -133 l0 -125 -34 0 -34 0 -4 113 c-5&#xA;128 5 160 48 155 14 -2 24 -6 24 -10z m679 -183 c0 -5 -4 -3 -9 5 -5 8 -9 22&#xA;-9 30 0 16 17 -16 18 -35z m-1 -66 c-3 -20 -5 -19 -9 9 -3 20 -2 29 4 23 5 -5&#xA;7 -19 5 -32z m-658 -29 c0 -5 -20 -10 -45 -10 -25 0 -45 5 -45 10 0 6 20 10&#xA;45 10 25 0 45 -4 45 -10z m708 -35 c-3 -3 -9 2 -12 12 -6 14 -5 15 5 6 7 -7&#xA;10 -15 7 -18z"/>
    <path d="M1057 1133 c-4 -3 -7 -24 -7 -45 0 -35 2 -38 28 -38 16 0 40 10 53&#xA;22 l25 23 -25 22 c-23 22 -61 30 -74 16z"/>
    <path d="M1440 1116 c-5 -13 -15 -26 -22 -29 -8 -4 -7 -6 5 -6 9 -1 17 -8 17&#xA;-17 0 -13 7 -15 32 -10 39 8 58 23 58 47 0 41 -75 53 -90 15z"/>
  </g>
</svg>